<svg xmlns="http://www.w3.org/2000/svg" width="64" height="64" viewBox="0 0 64 64" fill="none"><g clip-path="url(#clip0)"><path d="M51.9385 55.742L49.5488 48.5719C48.7137 46.0687 46.5831 44.221 43.9859 43.7482L37.0874 42.493V41.9582C38.2879 41.2615 39.3325 40.3293 40.1645 39.2259H42.2486C43.956 39.2259 45.3454 37.8364 45.3454 36.1291V23.742C45.3454 16.3428 39.3253 10.3226 31.9261 10.3226C24.5268 10.3226 18.5067 16.3428 18.5067 23.742V30.9678C18.5067 32.958 19.9219 34.623 21.7986 35.0112C22.3777 37.9779 24.2316 40.4883 26.7648 41.9582V42.493L19.8652 43.7482C17.269 44.221 15.1374 46.0687 14.3034 48.5719L13.8904 49.8117L10.3746 46.2958C9.972 45.8932 9.972 45.2377 10.3746 44.8351L14.452 40.7588L6.79884 33.1056L2.19084 37.7136C0.826191 39.0782 0.074707 40.893 0.074707 42.8233C0.074707 44.7536 0.826191 46.5673 2.19084 47.9319L16.1418 61.8829C17.5065 63.2475 19.3212 64.0001 21.2515 64.0001C23.1818 64.0001 24.9955 63.2475 26.3281 61.9139L31.3563 57.3069L29.7883 55.742H51.9385ZM43.2809 36.1291C43.2809 36.6989 42.8174 37.1613 42.2486 37.1613H41.3805C41.6799 36.479 41.907 35.7595 42.0536 35.0112C42.4954 34.9193 42.9021 34.7438 43.2809 34.5229V36.1291ZM42.2486 32.7453V29.1902C42.8628 29.5484 43.2809 30.207 43.2809 30.9678C43.2809 31.7286 42.8628 32.3871 42.2486 32.7453ZM21.6035 32.7453C20.9893 32.3871 20.5712 31.7286 20.5712 30.9678C20.5712 30.207 20.9893 29.5484 21.6035 29.1902V32.7453ZM21.6035 25.8065V26.9853C21.236 27.0813 20.8912 27.2259 20.5712 27.4127V23.742C20.5712 17.4813 25.6654 12.3871 31.9261 12.3871C38.1867 12.3871 43.2809 17.4813 43.2809 23.742V27.4127C42.9609 27.2259 42.6161 27.0803 42.2486 26.9853V25.8065H41.2164C38.164 25.8065 35.2943 24.6173 33.1348 22.4589L31.9261 21.2501L30.7173 22.4589C28.5578 24.6173 25.6881 25.8065 22.6357 25.8065H21.6035ZM23.668 33.0323V27.8318C26.7679 27.5985 29.6582 26.3195 31.9261 24.1631C34.1939 26.3195 37.0843 27.5995 40.1841 27.8318V33.0323C40.1841 34.5373 39.7733 35.9453 39.0672 37.1613H31.9261V39.2259H37.3702C35.9147 40.5069 34.0123 41.2904 31.9261 41.2904C27.3728 41.2904 23.668 37.5856 23.668 33.0323ZM35.0228 42.879V42.9275L31.9261 46.0243L28.8293 42.9275V42.879C29.8079 43.1866 30.8474 43.3549 31.9261 43.3549C33.0048 43.3549 34.0443 43.1866 35.0228 42.879ZM16.2605 49.2243C16.8561 47.4364 18.3787 46.1162 20.2337 45.7776L27.4492 44.4666L31.9261 48.9435L36.4019 44.4677L43.6164 45.7786C45.4714 46.1172 46.9939 47.4364 47.5896 49.2253L49.075 53.6775H27.7237L23.7031 49.6568L19.2355 53.6981C18.8463 54.0893 18.1661 54.0893 17.7759 53.6981L15.5214 51.4437L16.2605 49.2243ZM6.7978 36.0248L11.5317 40.7588L10.4107 41.8798L5.67677 37.1459L6.7978 36.0248ZM24.8985 60.4253C23.924 61.3977 22.6275 61.9355 21.2494 61.9355C19.8714 61.9355 18.5748 61.3977 17.5994 60.4233L3.64838 46.4733C2.67393 45.4989 2.13716 44.2024 2.13716 42.8243C2.13716 41.4452 2.67393 40.1487 3.64838 39.1742L4.21613 38.6065L8.95006 43.3404L8.9129 43.3776C7.70619 44.5853 7.70619 46.5497 8.9129 47.7575L16.3152 55.1598C16.9005 55.7441 17.6778 56.0672 18.5057 56.0672C19.3335 56.0672 20.1108 55.7451 20.6579 55.1959L20.7354 55.1268L25.491 59.8824L24.8985 60.4253ZM27.0146 58.4847L22.2693 53.7394L23.6329 52.5069L28.3699 57.2439L27.0146 58.4847Z" fill="#0D5736"></path><path d="M60.8292 0H46.3775C44.6702 0 43.2808 1.38942 43.2808 3.09677V11.3548C43.2808 13.0622 44.6702 14.4516 46.3775 14.4516H49.1347L48.0673 20.6772L58.0286 14.4516H60.8292C62.5365 14.4516 63.9259 13.0622 63.9259 11.3548V3.09677C63.9259 1.38942 62.5365 0 60.8292 0ZM61.8614 11.3548C61.8614 11.9236 61.3979 12.3871 60.8292 12.3871H57.4361L50.8802 16.4841L51.5832 12.3871H46.3775C45.8088 12.3871 45.3453 11.9236 45.3453 11.3548V3.09677C45.3453 2.528 45.8088 2.06452 46.3775 2.06452H60.8292C61.3979 2.06452 61.8614 2.528 61.8614 3.09677V11.3548Z" fill="#0D5736"></path><path d="M59.7968 4.12903H47.4097V6.19354H59.7968V4.12903Z" fill="#0D5736"></path><path d="M55.6677 8.25806H47.4097V10.3226H55.6677V8.25806Z" fill="#0D5736"></path><path d="M59.7969 8.25806H57.7324V10.3226H59.7969V8.25806Z" fill="#0D5736"></path><path d="M31.9261 3.0968C18.4386 3.0968 6.82057 12.4264 3.80018 25.44L1.84405 22.1791L0.0737305 23.2413L3.70212 29.2873L9.74805 25.6589L8.68586 23.8885L5.88844 25.567C8.81386 13.662 19.5194 5.16132 31.9261 5.16132C34.6379 5.16132 37.3135 5.5639 39.8786 6.35874L40.4897 4.38712C37.7264 3.53035 34.8453 3.0968 31.9261 3.0968Z" fill="#0D5736"></path><path d="M63.4242 22.8561L57.3783 19.2277L53.7509 25.2746L55.5213 26.3368L57.3277 23.3257C58.2784 26.1077 58.7646 29.0176 58.7646 31.9998C58.7646 38.1386 56.6382 44.1402 52.7786 48.8979L54.3817 50.1985C58.5396 45.0744 60.8291 38.6104 60.8291 31.9998C60.8291 28.8421 60.3202 25.7588 59.3282 22.8065L62.362 24.6264L63.4242 22.8561Z" fill="#0D5736"></path></g><defs><clipPath id="clip0"><rect width="64" height="64" fill="white"></rect></clipPath></defs></svg>