<svg xmlns="http://www.w3.org/2000/svg" width="55" height="56" viewBox="0 0 55 56" fill="none"><path d="M35.9394 0.0585938C32.4224 0.0585938 28.9871 1.04722 26.002 2.91798C25.4295 3.22748 21.0893 5.73662 21.763 10.3078C22.009 11.9773 22.8923 13.1704 23.7467 14.3244C24.9523 15.9528 26.103 17.5094 25.7892 20.6583C25.7722 20.6493 25.7563 20.6388 25.7392 20.63C24.8467 20.1749 23.8305 20.0949 22.8776 20.4044C22.0053 20.6878 21.2828 21.2672 20.8181 22.0476C20.5006 21.7402 20.1377 21.4761 19.7356 21.2649C19.0351 20.8971 18.2702 20.7168 17.5006 20.7283C17.4427 20.1015 17.4753 19.6897 17.5124 19.2282C17.5593 18.6443 17.6123 17.9825 17.4714 16.9414C17.1974 14.9187 16.0391 13.1515 14.2094 11.9654C12.0028 10.5346 9.0369 10.1149 6.46952 10.8694C1.8005 12.2415 -0.89876 17.1585 0.45237 21.8302C0.851122 23.2087 1.58375 24.4803 2.57113 25.5073C3.08938 26.0464 3.36976 26.7582 3.34063 27.46C3.25776 29.4541 3.53326 31.4346 4.15951 33.3469C5.50064 37.4414 8.41528 40.8268 12.3665 42.8789C14.8396 44.1633 17.5061 44.8155 20.1659 44.8154C21.7556 44.8154 23.3431 44.5824 24.8847 44.1123C25.7385 43.8519 26.5748 43.5226 27.3707 43.1333C29.548 42.0681 31.2739 40.25 32.2302 38.0132C32.7634 36.7666 33.0389 35.434 33.0526 34.0962C33.6435 34.2049 34.2681 34.1734 34.8754 33.9776C36.8236 33.3497 37.9051 31.2223 37.2868 29.2357L36.3279 26.1556C35.6906 24.1091 34.0758 22.5499 32.0082 21.9847C30.6882 21.6242 29.3216 21.7076 28.092 22.1882C28.9982 17.2173 27.2165 14.8087 25.7565 12.8366C25.024 11.8473 24.3915 10.9928 24.2367 9.94301C23.7933 6.93425 27.0656 5.18274 27.2011 5.11174C27.2334 5.09511 27.265 5.07711 27.2957 5.05774C29.8906 3.42261 32.8797 2.55835 35.9401 2.55835C45.0718 2.55835 52.5009 10.1929 52.5009 19.5768C52.5009 29.8745 44.4155 38.5276 37.633 43.9734C31.2819 49.0725 24.8466 52.3949 22.9998 53.3041C21.2243 52.4299 15.2128 49.3285 9.11565 44.566C8.57153 44.1411 7.78615 44.2376 7.36102 44.7816C6.93602 45.3258 7.03265 46.1113 7.57665 46.5363C15.0446 52.3695 22.1758 55.6882 22.4758 55.8266C22.6421 55.9033 22.8208 55.9416 22.9996 55.9416C23.1783 55.9416 23.3572 55.9032 23.5233 55.8266C23.843 55.6791 31.4386 52.1436 39.1568 45.9557C43.7187 42.2985 47.3607 38.4742 49.9817 34.5896C53.3117 29.6541 55.0002 24.6031 55.0002 19.577C55.0003 8.8145 46.4496 0.0585938 35.9394 0.0585938ZM15.8541 25.0739C16.4204 24.5762 17.0319 24.0379 17.3643 23.2388C17.7788 23.1998 18.1962 23.2801 18.5734 23.4782C19.0119 23.7086 19.3502 24.0737 19.5476 24.5201L19.0262 25.5431L15.4101 25.4714C15.5599 25.3323 15.7087 25.2016 15.8541 25.0739ZM26.8396 26.7284L27.256 25.9114C27.4221 25.6654 27.6187 25.4373 27.8442 25.2333C28.7981 24.3703 30.108 24.0574 31.3485 24.3964C32.5891 24.7356 33.558 25.6712 33.9404 26.8991L34.8993 29.979C35.1121 30.6627 34.7571 31.3891 34.108 31.5983C33.4916 31.7975 32.8245 31.4893 32.5744 30.8975L31.8436 28.5503C31.6384 27.8912 30.9376 27.5231 30.2785 27.7285C29.6194 27.9337 29.2514 28.6343 29.4566 29.2936L30.2065 31.7022C31.3386 35.3556 29.6837 39.2189 26.2717 40.8878C25.5946 41.2189 24.8825 41.4994 24.1551 41.7211C16.9484 43.9188 8.8794 39.7271 6.53489 32.5689C6.00202 30.942 5.76764 29.2581 5.83802 27.564C5.89539 26.1844 5.36152 24.8036 4.37314 23.7752C3.65551 23.0284 3.14413 22.1404 2.85363 21.1357C1.88388 17.7825 3.82201 14.253 7.17415 13.2679C7.79777 13.0846 8.45278 12.9951 9.1084 12.9951C10.4375 12.9951 11.7695 13.363 12.8493 14.063C13.7042 14.6173 14.7702 15.6247 14.9939 17.2768C15.0988 18.0509 15.0624 18.5037 15.0203 19.028C14.9693 19.664 14.9114 20.3848 15.0883 21.6046C15.1901 22.3064 15.0522 22.4502 14.2034 23.1961C13.97 23.4012 13.7055 23.6336 13.4318 23.9036C13.4315 23.9039 13.4228 23.9124 13.4224 23.9128L13.4072 23.9277C12.7234 24.5957 12.5083 25.5997 12.8589 26.4856C13.207 27.3648 14.0442 27.9451 14.9918 27.9638L19.2822 28.0488C20.0516 28.0655 20.7661 27.6342 21.1136 26.9523L22.9225 23.4034C23.074 23.1061 23.3323 22.8854 23.6498 22.7823C23.9676 22.6793 24.3061 22.7058 24.6037 22.8577C24.9012 23.0092 25.1218 23.2676 25.225 23.5851C25.3281 23.9027 25.3013 24.2413 25.1497 24.5388L25.086 24.6638C24.8776 24.9931 24.701 25.3402 24.558 25.6997L23.341 28.0876C22.7941 29.1606 21.8125 29.984 20.6478 30.3467C20.1867 30.4902 19.7103 30.5585 19.2327 30.5486L13.8267 30.4398C13.1333 30.4267 12.5657 30.9743 12.5518 31.6645C12.5379 32.3547 13.0862 32.9255 13.7764 32.9394L19.1824 33.0481C19.9294 33.0627 20.6726 32.9574 21.3911 32.7337C22.6506 32.3415 23.7728 31.5993 24.6251 30.6191L25.506 33.4482C25.7112 34.1074 26.4115 34.4755 27.0711 34.2701C27.7302 34.0649 28.0982 33.3641 27.893 32.705L26.7796 29.1291C26.5313 28.331 26.5632 27.4873 26.8396 26.7284Z" fill="#0D5736"></path></svg>