<svg xmlns="http://www.w3.org/2000/svg" width="52" height="54" viewBox="0 0 52 54" fill="none"><path d="M51.9385 45.742L49.5488 38.5719C48.7137 36.0687 46.5831 34.221 43.9859 33.7482L37.0874 32.493V31.9582C38.2879 31.2615 39.3325 30.3293 40.1645 29.2259H42.2486C43.956 29.2259 45.3454 27.8364 45.3454 26.1291V13.742C45.3454 6.34276 39.3253 0.322632 31.9261 0.322632C24.5268 0.322632 18.5067 6.34276 18.5067 13.742V20.9678C18.5067 22.958 19.9219 24.623 21.7986 25.0112C22.3777 27.9779 24.2316 30.4883 26.7648 31.9582V32.493L19.8652 33.7482C17.269 34.221 15.1374 36.0687 14.3034 38.5719L13.8904 39.8117L10.3746 36.2958C9.972 35.8932 9.972 35.2377 10.3746 34.8351L14.452 30.7588L6.79884 23.1056L2.19084 27.7136C0.826191 29.0782 0.074707 30.893 0.074707 32.8233C0.074707 34.7536 0.826191 36.5673 2.19084 37.9319L16.1418 51.8829C17.5065 53.2475 19.3212 54.0001 21.2515 54.0001C23.1818 54.0001 24.9955 53.2475 26.3281 51.9139L31.3563 47.3069L29.7883 45.742H51.9385ZM43.2809 26.1291C43.2809 26.6989 42.8174 27.1613 42.2486 27.1613H41.3805C41.6799 26.479 41.907 25.7595 42.0536 25.0112C42.4954 24.9193 42.9021 24.7438 43.2809 24.5229V26.1291ZM42.2486 22.7453V19.1902C42.8628 19.5484 43.2809 20.207 43.2809 20.9678C43.2809 21.7286 42.8628 22.3871 42.2486 22.7453ZM21.6035 22.7453C20.9893 22.3871 20.5712 21.7286 20.5712 20.9678C20.5712 20.207 20.9893 19.5484 21.6035 19.1902V22.7453ZM21.6035 15.8065V16.9853C21.236 17.0813 20.8912 17.2259 20.5712 17.4127V13.742C20.5712 7.48134 25.6654 2.38715 31.9261 2.38715C38.1867 2.38715 43.2809 7.48134 43.2809 13.742V17.4127C42.9609 17.2259 42.6161 17.0803 42.2486 16.9853V15.8065H41.2164C38.164 15.8065 35.2943 14.6173 33.1348 12.4589L31.9261 11.2501L30.7173 12.4589C28.5578 14.6173 25.6881 15.8065 22.6357 15.8065H21.6035ZM23.668 23.0323V17.8318C26.7679 17.5985 29.6582 16.3195 31.9261 14.1631C34.1939 16.3195 37.0843 17.5995 40.1841 17.8318V23.0323C40.1841 24.5373 39.7733 25.9453 39.0672 27.1613H31.9261V29.2259H37.3702C35.9147 30.5069 34.0123 31.2904 31.9261 31.2904C27.3728 31.2904 23.668 27.5856 23.668 23.0323ZM35.0228 32.879V32.9275L31.9261 36.0243L28.8293 32.9275V32.879C29.8079 33.1866 30.8474 33.3549 31.9261 33.3549C33.0048 33.3549 34.0443 33.1866 35.0228 32.879ZM16.2605 39.2243C16.8561 37.4364 18.3787 36.1162 20.2337 35.7776L27.4492 34.4666L31.9261 38.9435L36.4019 34.4677L43.6164 35.7786C45.4714 36.1172 46.9939 37.4364 47.5896 39.2253L49.075 43.6775H27.7237L23.7031 39.6568L19.2355 43.6981C18.8463 44.0893 18.1661 44.0893 17.7759 43.6981L15.5214 41.4437L16.2605 39.2243ZM6.7978 26.0248L11.5317 30.7588L10.4107 31.8798L5.67677 27.1459L6.7978 26.0248ZM24.8985 50.4253C23.924 51.3977 22.6275 51.9355 21.2494 51.9355C19.8714 51.9355 18.5748 51.3977 17.5994 50.4233L3.64838 36.4733C2.67393 35.4989 2.13716 34.2024 2.13716 32.8243C2.13716 31.4452 2.67393 30.1487 3.64838 29.1742L4.21613 28.6065L8.95006 33.3404L8.9129 33.3776C7.70619 34.5853 7.70619 36.5497 8.9129 37.7575L16.3152 45.1598C16.9005 45.7441 17.6778 46.0672 18.5057 46.0672C19.3335 46.0672 20.1108 45.7451 20.6579 45.1959L20.7354 45.1268L25.491 49.8824L24.8985 50.4253ZM27.0146 48.4847L22.2693 43.7394L23.6329 42.5069L28.3699 47.2439L27.0146 48.4847Z" fill="#0D5736"></path></svg>