<svg xmlns="http://www.w3.org/2000/svg" width="64" height="64" viewBox="0 0 64 64" fill="none"><path d="M59.3125 13.2725H47.2663C46.7484 13.2725 46.3288 13.6921 46.3288 14.21C46.3288 14.7279 46.7484 15.1475 47.2663 15.1475H59.3125C60.8633 15.1475 62.125 16.4092 62.125 17.96V49.79C62.125 51.3408 60.8633 52.6025 59.3125 52.6025H35.6632C35.66 52.6025 35.6569 52.602 35.6536 52.602C35.6504 52.602 35.6473 52.6025 35.644 52.6025H28.3563C28.353 52.6025 28.3499 52.602 28.3466 52.602C28.3434 52.602 28.3403 52.6025 28.337 52.6025H4.6875C3.13675 52.6025 1.875 51.3408 1.875 49.79V17.96C1.875 16.4092 3.13675 15.1475 4.6875 15.1475H20.1706V16.091C20.1706 16.4045 20.1839 16.715 20.2076 17.0225H5.0625C4.33875 17.0225 3.75 17.6112 3.75 18.335V41.5865C3.75 42.1044 4.16962 42.524 4.6875 42.524C5.20538 42.524 5.625 42.1044 5.625 41.5865V18.8975H20.5029C21.3041 22.2311 23.4977 25.0261 26.425 26.6135V28.7139C26.425 29.206 26.1111 29.642 25.6436 29.799L16.5951 32.8415C13.6656 33.8256 11.6974 36.5619 11.6974 39.6502V48.8527H5.625V45.9616C5.625 45.4437 5.20538 45.0241 4.6875 45.0241C4.16962 45.0241 3.75 45.4437 3.75 45.9616V49.4152C3.75 50.139 4.33875 50.7277 5.0625 50.7277H58.9375C59.6613 50.7277 60.25 50.139 60.25 49.4152V18.335C60.25 17.6112 59.6613 17.0225 58.9375 17.0225H43.8013C43.8195 16.753 43.8293 16.4819 43.8293 16.2091V5.66638C43.8294 2.54188 41.2875 0 38.163 0H25.8371C22.7126 0 20.1707 2.54188 20.1707 5.66638V13.2725H4.6875C2.10275 13.2725 0 15.3752 0 17.96V49.79C0 52.3748 2.10275 54.4775 4.6875 54.4775H27.4089V58.375H26.2246C23.8468 58.375 21.9121 60.3096 21.9121 62.6875C21.9121 63.4113 22.5009 64 23.2246 64H40.7751C41.4989 64 42.0876 63.4113 42.0876 62.6875C42.0876 60.3096 40.153 58.375 37.7751 58.375H36.5909V54.4775H59.3125C61.8973 54.4775 64 52.3748 64 49.79V17.96C64 15.3752 61.8973 13.2725 59.3125 13.2725ZM50.4275 48.8525H13.5725V39.65C13.5725 37.3679 15.0273 35.346 17.1926 34.6186L19.3106 33.9065C19.1893 34.5894 19.1385 35.2827 19.1649 35.9815C19.189 36.6205 19.2757 37.2537 19.4237 37.8745C17.3739 38.4128 15.8573 40.2811 15.8573 42.4975V45.5829C15.8573 46.4556 16.5674 47.1657 17.4401 47.1657H18.3161C18.834 47.1657 19.2536 46.7461 19.2536 46.2282C19.2536 45.7104 18.834 45.2907 18.3161 45.2907H17.7323V42.4975C17.7323 40.8968 19.0339 39.5944 20.6344 39.5931C20.6353 39.5931 20.636 39.5933 20.6367 39.5933C20.6379 39.5933 20.6391 39.5931 20.6402 39.5931C22.2401 39.5951 23.541 40.8971 23.541 42.4974V45.2906H22.9571C22.4392 45.2906 22.0196 45.7103 22.0196 46.2281C22.0196 46.746 22.4392 47.1656 22.9571 47.1656H23.8331C24.7059 47.1656 25.416 46.4555 25.416 45.5827V42.4974C25.416 40.099 23.64 38.1082 21.3342 37.7694C21.1619 37.163 21.0623 36.5402 21.0385 35.9105C21.0036 34.9899 21.13 34.0798 21.4119 33.1997L25.6204 31.7846L30.9114 37.0701C31.5689 37.7269 32.639 37.7269 33.2966 37.07L38.5349 31.837L43.1369 33.3843C43.4717 34.2605 43.6427 35.2048 43.634 36.1387C43.6261 36.9772 43.4701 37.8231 43.1842 38.6161C41.1216 38.9324 39.5368 40.7176 39.5368 42.8657C39.5368 45.2365 41.467 47.1652 43.8396 47.1652C46.2122 47.1652 48.1426 45.2364 48.1426 42.8657C48.1426 40.9367 46.8645 39.3006 45.1101 38.7578C45.3625 37.9134 45.5008 37.0319 45.5091 36.1565C45.5156 35.4725 45.4437 34.7844 45.3 34.1114L46.8076 34.6183C48.9727 35.3456 50.4275 37.3675 50.4275 39.6496V48.8525ZM36.7326 30.9876L32.1041 35.6113L27.3746 30.8866C27.9524 30.33 28.3 29.5535 28.3 28.7136V27.4272C29.4522 27.8118 30.6816 28.0227 31.9583 28.0271C31.9724 28.0271 31.9864 28.0273 32.0005 28.0273C33.2766 28.0273 34.5216 27.8266 35.7 27.4405V28.7136C35.7 29.605 36.0899 30.4264 36.7326 30.9876ZM43.8382 40.4417H43.8392H43.8405C45.1789 40.4421 46.2677 41.5296 46.2677 42.8661C46.2677 44.203 45.1785 45.2906 43.8397 45.2906C42.501 45.2906 41.4119 44.203 41.4119 42.8661C41.4119 41.5297 42.5002 40.4425 43.8382 40.4417ZM43.5231 18.8975H58.375V48.8525H52.3025V39.65C52.3025 36.5616 50.3342 33.8254 47.405 32.8413L38.3559 29.7987C37.8887 29.6418 37.5749 29.2057 37.5749 28.7136V26.6388C38.5843 26.0985 39.5201 25.4072 40.3539 24.5763C41.9455 22.9905 43.0285 21.032 43.5231 18.8975ZM22.0456 5.66638C22.0456 3.57575 23.7464 1.875 25.837 1.875H38.1629C40.2535 1.875 41.9543 3.57575 41.9543 5.66638V11.2852C41.0016 11.1768 39.8275 10.8911 38.6229 10.2233C37.5619 9.63513 36.6443 8.84787 35.8956 7.88363C35.4146 7.2635 34.527 7.11625 33.8753 7.54838C32.5918 8.39913 31.2209 9.12012 29.8005 9.69162C27.3388 10.6821 24.7341 11.2299 22.0456 11.3266V5.66638ZM22.0456 13.2044C24.9754 13.1068 27.8153 12.5116 30.5005 11.4311C31.9334 10.8546 33.3199 10.1374 34.6261 9.29737C35.4907 10.3435 36.5281 11.2059 37.7137 11.8631C39.2615 12.721 40.768 13.0586 41.9544 13.1707V16.2091C41.9544 18.8695 40.916 21.3694 39.0305 23.2482C38.2211 24.0549 37.2976 24.7041 36.297 25.1834C36.2556 25.1995 36.2156 25.2181 36.1775 25.2397C34.8754 25.842 33.4459 26.1579 31.9649 26.1521H31.9648C26.4954 26.1334 22.0456 21.6198 22.0456 16.0909C22.0456 16.0788 22.0451 13.2141 22.0456 13.2044ZM29.2839 54.4775H34.716V58.375H29.2839V54.4775ZM37.7752 60.25C38.9258 60.25 39.8926 61.0511 40.1473 62.125H23.8528C24.1073 61.0511 25.0741 60.25 26.2248 60.25H37.7752Z" fill="#0D5736"></path></svg>