<svg xmlns="http://www.w3.org/2000/svg" width="62" height="63" viewBox="0 0 62 63" fill="none"><path d="M61 3.99998C57.91 3.99998 54.876 3.15998 52.228 1.56998L51 0.833984L49.772 1.56998C47.124 3.15998 44.09 3.99998 41 3.99998H40V8.99998H38V7.99998C38 4.13998 34.859 0.999984 31 0.999984C27.141 0.999984 24 4.13998 24 7.99998V8.99998H10C8.897 8.99998 8 9.89699 8 11V19.012C5.731 19.077 3.628 20.112 2.206 21.892C0.783 23.67 0 25.904 0 28.21C0 30.921 1.056 33.47 2.973 35.387L8 40.414V61C8 62.103 8.897 63 10 63H52C53.103 63 54 62.103 54 61V25.84C58.877 23.28 62 18.251 62 12.559V3.99998H61ZM48 38.62L45.885 41H34V53H46V43.88L48 41.63V57H14V46.414L15 47.414L27.027 35.387C27.742 34.672 28.337 33.868 28.802 33H38.184C38.598 34.161 39.698 35 41 35C42.654 35 44 33.654 44 32C44 30.346 42.654 29 41 29C39.698 29 38.598 29.839 38.184 31H29.604C29.861 30.097 30 29.152 30 28.181C30 25.904 29.217 23.671 27.794 21.892C26.325 20.054 24.132 19 21.777 19C19.719 19 17.785 19.801 16.329 21.257L15 22.586L14 21.586V15H40.195C40.946 19.667 43.834 23.653 48 25.84V38.62ZM41.043 49.457L44 46.13V51H36V43H44V43.12L40.957 46.543L38.707 44.293L37.293 45.707L41.043 49.457ZM40 32C40 31.449 40.448 31 41 31C41.552 31 42 31.449 42 32C42 32.551 41.552 33 41 33C40.448 33 40 32.551 40 32ZM26 7.99998C26 5.24298 28.243 2.99998 31 2.99998C33.757 2.99998 36 5.24298 36 7.99998V8.99998H34V7.99998C34 6.34598 32.654 4.99998 31 4.99998C29.346 4.99998 28 6.34598 28 7.99998V8.99998H26V7.99998ZM32 8.99998H30V7.99998C30 7.44898 30.448 6.99998 31 6.99998C31.552 6.99998 32 7.44898 32 7.99998V8.99998ZM40 11V12.56C40 12.708 40.013 12.853 40.018 13H12V19.993C11.374 19.639 10.702 19.378 10 19.213V11H40ZM2 28.181C2 26.356 2.628 24.567 3.769 23.141C4.855 21.78 6.479 21 8.223 21C9.746 21 11.179 21.593 12.257 22.671L15 25.414L17.743 22.671C18.821 21.593 20.254 21 21.777 21C23.52 21 25.144 21.78 26.231 23.141C27.372 24.566 28 26.356 28 28.21C28 29.178 27.823 30.117 27.502 31H18.382L16.186 35.394L13.085 26.094L10.323 33H8V35H11.677L12.915 31.906L15.814 40.606L19.618 33H26.434C26.185 33.34 25.917 33.669 25.613 33.973L15 44.586L4.387 33.973C2.848 32.434 2 30.387 2 28.181ZM52 61H10V42.414L12 44.414V59H50V26.713C50.237 26.797 50.47 26.886 50.713 26.958L51 27.044L51.287 26.958C51.53 26.885 51.763 26.796 52 26.713V61ZM60 12.56C60 18.259 56.396 23.202 51 24.953C45.604 23.202 42 18.259 42 12.56V5.97398C45.104 5.81098 48.128 4.88998 50.802 3.28598L51 3.16598L51.198 3.28498C53.871 4.88998 56.896 5.81098 60 5.97398V12.56Z" fill="#0D5736"></path></svg>